<?xml version="1.0" encoding="UTF-8" standalone="no"?>
<!DOCTYPE svg PUBLIC "-//W3C//DTD SVG 1.1//EN" "http://www.w3.org/Graphics/SVG/1.1/DTD/svg11.dtd">
<svg width="100%" height="100%" viewBox="0 0 535 205" version="1.1" xmlns="http://www.w3.org/2000/svg" xmlns:xlink="http://www.w3.org/1999/xlink" xml:space="preserve" xmlns:serif="http://www.serif.com/" style="fill-rule:evenodd;clip-rule:evenodd;stroke-linejoin:round;stroke-miterlimit:2;">
    <g transform="matrix(1,0,0,1,-414.939,-302.085)">
        <g transform="matrix(0.791339,0,0,0.599872,150.95,147.258)">
            <rect x="333.598" y="258.1" width="675.131" height="341.479" style="fill:white;"/>
        </g>
        <g id="Layer_1-2" transform="matrix(0.438266,0,0,0.438266,430.047,329.469)">
            <path d="M102.8,172C102,185.9 112.7,197.8 126.6,198.6L128.1,198.6C142.1,198.6 153.4,187.3 153.3,173.3C153.3,159.3 142,148 128,148.1C114.6,148.1 103.5,158.6 102.8,172Z" style="fill:rgb(0,51,173);fill-rule:nonzero;"/>
            <path d="M8.6,165.5C4.1,165.2 0.2,168.7 0,173.2C-0.2,177.7 3.2,181.6 7.7,181.8C12.2,182.1 16,178.6 16.3,174.1C16.6,169.6 13.1,165.8 8.6,165.5Z" style="fill:rgb(0,51,173);fill-rule:nonzero;"/>
            <path d="M101.2,25.4C105.2,23.4 106.8,18.4 104.8,14.4C102.8,10.4 97.8,8.8 93.8,10.8C89.8,12.8 88.2,17.7 90.2,21.7C92.2,25.8 97.1,27.5 101.2,25.4C101.1,25.4 101.2,25.4 101.2,25.4Z" style="fill:rgb(0,51,173);fill-rule:nonzero;"/>
            <path d="M126.8,70.1C133,67 135.5,59.4 132.4,53.2C129.3,47 121.7,44.5 115.5,47.6C109.3,50.7 106.8,58.3 109.9,64.5C113,70.7 120.6,73.2 126.8,70.1Z" style="fill:rgb(0,51,173);fill-rule:nonzero;"/>
            <path d="M40.6,100.8C45.4,103.9 51.8,102.6 55,97.8C58.1,93 56.8,86.6 52,83.4C47.2,80.3 40.8,81.6 37.6,86.4C34.4,91.2 35.8,97.7 40.6,100.8Z" style="fill:rgb(0,51,173);fill-rule:nonzero;"/>
            <path d="M55.9,161C48.9,160.6 43,165.9 42.6,172.9C42.2,179.9 47.5,185.8 54.5,186.2C61.5,186.6 67.4,181.3 67.8,174.3C68.2,167.4 62.9,161.4 55.9,161Z" style="fill:rgb(0,51,173);fill-rule:nonzero;"/>
            <path d="M42,245.7C36.9,248.3 34.8,254.5 37.4,259.7C40,264.8 46.2,266.9 51.4,264.3C56.5,261.7 58.6,255.5 56,250.3C53.4,245.2 47.1,243.1 42,245.7Z" style="fill:rgb(0,51,173);fill-rule:nonzero;"/>
            <path d="M91,134.9C97.9,139.4 107.1,137.5 111.5,130.6C116,123.7 114.1,114.5 107.2,110.1C100.3,105.6 91.1,107.5 86.7,114.4C82.2,121.2 84.1,130.4 91,134.9Z" style="fill:rgb(0,51,173);fill-rule:nonzero;"/>
            <path d="M246.5,69.1C252.3,72.9 260.2,71.3 264,65.5C267.8,59.7 266.2,51.8 260.4,48C254.6,44.2 246.7,45.8 242.9,51.6C239,57.5 240.6,65.3 246.5,69.1Z" style="fill:rgb(0,51,173);fill-rule:nonzero;"/>
            <path d="M272.3,24.6C276.1,27.1 281.1,26 283.6,22.2C286.1,18.4 285,13.4 281.2,10.9C277.4,8.4 272.4,9.5 269.9,13.2C267.5,17 268.6,22.1 272.3,24.6Z" style="fill:rgb(0,51,173);fill-rule:nonzero;"/>
            <path d="M248.4,147.9C234.5,147.1 222.5,157.8 221.8,171.7C221,185.6 231.7,197.6 245.6,198.3L247,198.3C260.9,198.3 272.2,187 272.2,173C272.3,159.7 261.8,148.6 248.4,147.9Z" style="fill:rgb(0,51,173);fill-rule:nonzero;"/>
            <path d="M135.1,133.1C139.4,141.6 148.1,147 157.7,147C171.6,147 182.9,135.7 182.9,121.7C182.9,117.8 182,113.9 180.2,110.3C173.9,97.8 158.7,92.8 146.3,99.1C133.8,105.5 128.8,120.7 135.1,133.1Z" style="fill:rgb(0,51,173);fill-rule:nonzero;"/>
            <path d="M333,100.8C338.1,98.2 340.1,91.9 337.5,86.8C334.9,81.7 328.6,79.7 323.5,82.3C318.4,84.9 316.4,91.1 318.9,96.2C321.6,101.3 327.8,103.4 333,100.8Z" style="fill:rgb(0,51,173);fill-rule:nonzero;"/>
            <path d="M269,108.8C261.7,112.5 258.7,121.4 262.4,128.7C266.1,136 275,139 282.3,135.3C289.6,131.6 292.6,122.7 288.9,115.4C285.2,108.1 276.3,105.2 269,108.8Z" style="fill:rgb(0,51,173);fill-rule:nonzero;"/>
            <path d="M186.5,20.8C192.2,21.1 197.1,16.7 197.5,11C197.9,5.3 193.4,0.4 187.7,0C182,-0.3 177.1,4 176.7,9.7C176.4,15.5 180.8,20.4 186.5,20.8Z" style="fill:rgb(0,51,173);fill-rule:nonzero;"/>
            <path d="M186.4,86.1C194.6,86.6 201.6,80.3 202,72.1C202.5,63.9 196.2,56.9 188,56.5C179.8,56 172.8,62.3 172.4,70.5C172,78.7 178.2,85.7 186.4,86.1Z" style="fill:rgb(0,51,173);fill-rule:nonzero;"/>
            <path d="M106,237.7C113.3,234 116.3,225.1 112.6,217.8C108.9,210.5 100,207.5 92.7,211.2C85.4,214.9 82.4,223.8 86.1,231.1C89.8,238.4 98.7,241.4 106,237.7Z" style="fill:rgb(0,51,173);fill-rule:nonzero;"/>
            <path d="M196,107.8C188.4,119.5 191.6,135.1 203.3,142.7C215,150.3 230.6,147.1 238.2,135.4C245.8,123.7 242.6,108.1 230.9,100.5C226.8,97.8 222,96.4 217.1,96.4C208.6,96.4 200.7,100.7 196,107.8Z" style="fill:rgb(0,51,173);fill-rule:nonzero;"/>
            <path d="M239.9,213.4C233.6,200.9 218.4,195.9 206,202.2C193.5,208.5 188.5,223.7 194.8,236.1C201.1,248.6 216.3,253.6 228.7,247.3C241.1,241.1 246.2,226.1 240,213.6C240,213.5 240,213.5 239.9,213.4Z" style="fill:rgb(0,51,173);fill-rule:nonzero;"/>
            <path d="M284,211.6C277.1,207.1 267.9,209 263.5,215.9C259,222.8 260.9,232 267.8,236.4C274.7,240.9 283.9,239 288.3,232.1C292.8,225.3 290.9,216.1 284,211.6Z" style="fill:rgb(0,51,173);fill-rule:nonzero;"/>
            <path d="M332.4,173.7C332.8,166.7 327.5,160.8 320.5,160.4C313.5,160 307.6,165.3 307.2,172.3C306.8,179.3 312.1,185.2 319.1,185.6C326,186 332,180.6 332.4,173.7Z" style="fill:rgb(0,51,173);fill-rule:nonzero;"/>
            <path d="M367.3,164.7C362.8,164.4 358.9,167.9 358.7,172.4C358.5,176.9 361.9,180.8 366.4,181C370.9,181.3 374.7,177.8 375,173.3C375.2,168.8 371.8,165 367.3,164.7Z" style="fill:rgb(0,51,173);fill-rule:nonzero;"/>
            <path d="M334.4,245.7C329.6,242.6 323.2,243.9 320,248.7C316.9,253.5 318.2,259.9 323,263.1C327.8,266.2 334.2,264.9 337.4,260.1C340.6,255.3 339.2,248.8 334.4,245.7Z" style="fill:rgb(0,51,173);fill-rule:nonzero;"/>
            <path d="M102.6,321.9C98.8,319.4 93.8,320.5 91.3,324.2C88.8,328 89.9,333 93.6,335.5C97.4,338 102.4,336.9 104.9,333.2C107.5,329.5 106.4,324.4 102.6,321.9Z" style="fill:rgb(0,51,173);fill-rule:nonzero;"/>
            <path d="M273.8,321.1C269.8,323.1 268.2,328.1 270.2,332.1C272.2,336.1 277.2,337.7 281.2,335.7C285.2,333.7 286.8,328.8 284.8,324.8C282.8,320.7 277.9,319 273.8,321.1C273.9,321.1 273.8,321.1 273.8,321.1Z" style="fill:rgb(0,51,173);fill-rule:nonzero;"/>
            <path d="M179,238.7C186.6,227 183.4,211.4 171.7,203.7C160,196.1 144.4,199.3 136.7,211C129,222.7 132.3,238.3 144,246C148.1,248.7 152.9,250.1 157.8,250.1C166.4,250.2 174.3,245.9 179,238.7Z" style="fill:rgb(0,51,173);fill-rule:nonzero;"/>
            <path d="M128.5,277.4C122.7,273.6 114.8,275.2 111,281C107.2,286.8 108.8,294.7 114.6,298.5C120.4,302.3 128.3,300.7 132.1,294.9C136,289.1 134.4,281.2 128.5,277.4Z" style="fill:rgb(0,51,173);fill-rule:nonzero;"/>
            <path d="M187.4,325.7C181.7,325.4 176.8,329.8 176.4,335.5C176,341.2 180.5,346.1 186.2,346.5C191.9,346.8 196.8,342.5 197.2,336.8C197.5,331 193.1,326.1 187.4,325.7Z" style="fill:rgb(0,51,173);fill-rule:nonzero;"/>
            <path d="M187.5,260.4C179.3,259.9 172.3,266.2 171.9,274.4C171.4,282.6 177.7,289.6 185.9,290C194.1,290.4 201.1,284.2 201.5,276C202,267.9 195.7,260.8 187.5,260.4Z" style="fill:rgb(0,51,173);fill-rule:nonzero;"/>
            <path d="M248.2,276.4C242,279.6 239.5,287.2 242.7,293.4C245.9,299.6 253.5,302.1 259.7,298.9C265.9,295.8 268.4,288.2 265.3,282C262.1,275.8 254.5,273.2 248.2,276.4Z" style="fill:rgb(0,51,173);fill-rule:nonzero;"/>
        </g>
        <g transform="matrix(1,0,0,1,28.4971,8)">
            <g transform="matrix(3.95075,0,0,3.95075,-2089.18,-885.73)">
                <text x="681.813px" y="325.458px" style="font-family:'AppleSymbols', 'Apple Symbols';font-size:50px;fill:rgb(0,50,170);">cvm</text>
            </g>
            <g transform="matrix(-0.527594,0.000621839,-0.000532183,-0.451527,771.401,403.031)">
                <path d="M167.3,109.9C167.1,106.1 163.7,103.2 159.8,103.2L138.6,103.2L132.8,88.5L145.9,88.5C149.7,88.5 153.2,85.7 153.4,81.8C153.6,77.8 150.4,74.5 146.5,74.5L127.3,74.5L103.3,14C102.3,11.4 99.7,9.6 96.8,9.6C94,9.6 91.4,11.4 90.3,14L67.3,74.4L48.5,74.4C44.7,74.4 41.2,77.2 41,81.1C40.8,85.1 44,88.4 47.9,88.4L61.6,88.4L56,103L35,103C31.2,103 27.7,105.8 27.5,109.7C27.3,113.7 30.5,117 34.4,117L50.5,117L31.7,165.8C30.3,169.4 32.1,173.5 35.7,174.9C36.5,175.3 37.3,175.3 38.1,175.3C40.9,175.3 43.5,173.7 44.6,170.9L65.4,117.1L128.7,117.1L150.3,171.5C151.3,174.3 153.9,175.9 156.8,175.9C157.6,175.9 158.6,175.7 159.4,175.5C163,174.1 164.6,170.1 163.2,166.4L143.6,117.2L159.5,117.2C164.2,117.1 167.5,113.9 167.3,109.9ZM97.1,36.1L112.2,74.4L82.4,74.4L97.1,36.1C96.9,36.1 97.1,36.1 97.1,36.1ZM71.1,103.2L76.7,88.5L117.4,88.5L123.2,103.2L71.1,103.2Z" style="fill:rgb(0,50,170);fill-rule:nonzero;"/>
            </g>
        </g>
        <g transform="matrix(0.726538,0,0,0.726538,109.314,225.934)">
            <text x="681.813px" y="325.458px" style="font-family:'AppleSymbols', 'Apple Symbols';font-size:51.615px;">Cardano Version Manager</text>
        </g>
    </g>
</svg>
